<svg width="16" height="14" viewBox="0 0 16 14" fill="none" xmlns="http://www.w3.org/2000/svg">
<path d="M8.00115 12.6284C8.2064 12.8131 8.22304 13.1292 8.03831 13.3345C7.85358 13.5397 7.53744 13.5564 7.33218 13.3716L8.00115 12.6284ZM1 7L0.665518 7.37165C0.560161 7.27683 0.5 7.14174 0.5 7C0.5 6.85826 0.560161 6.72317 0.665518 6.62835L1 7ZM7.33218 0.628353C7.53744 0.443623 7.85358 0.460263 8.03831 0.665518C8.22304 0.870773 8.2064 1.18692 8.00115 1.37165L7.33218 0.628353ZM15 6.5C15.2761 6.5 15.5 6.72386 15.5 7C15.5 7.27614 15.2761 7.5 15 7.5V6.5ZM7.33218 13.3716L0.665518 7.37165L1.33448 6.62835L8.00115 12.6284L7.33218 13.3716ZM0.665518 6.62835L7.33218 0.628353L8.00115 1.37165L1.33448 7.37165L0.665518 6.62835ZM15 7.5H1V6.5H15V7.5Z" fill="black"/>
</svg>
