<svg width="8" height="6" viewBox="0 0 8 6" fill="none" xmlns="http://www.w3.org/2000/svg">
<path d="M1.35355 2.64645C1.15829 2.45118 0.841709 2.45118 0.646446 2.64645C0.451184 2.84171 0.451184 3.15829 0.646446 3.35355L1.35355 2.64645ZM3 5L2.64645 5.35355C2.74021 5.44732 2.86739 5.5 3 5.5C3.13261 5.5 3.25978 5.44732 3.35355 5.35355L3 5ZM7.35355 1.35355C7.54882 1.15829 7.54882 0.841709 7.35355 0.646447C7.15829 0.451184 6.84171 0.451184 6.64645 0.646447L7.35355 1.35355ZM0.646446 3.35355L2.64645 5.35355L3.35355 4.64645L1.35355 2.64645L0.646446 3.35355ZM3.35355 5.35355L7.35355 1.35355L6.64645 0.646447L2.64645 4.64645L3.35355 5.35355Z" fill="white"/>
</svg>
