<svg width="22" height="16" viewBox="0 0 22 16" fill="none" xmlns="http://www.w3.org/2000/svg">
<path d="M1.36207 7.65517C1.17163 7.45521 0.855138 7.44749 0.655172 7.63793C0.455208 7.82837 0.447488 8.14486 0.637932 8.34483L1.36207 7.65517ZM7.66667 15L7.3046 15.3448C7.39897 15.4439 7.52983 15.5 7.66667 15.5C7.8035 15.5 7.93436 15.4439 8.02874 15.3448L7.66667 15ZM21.3621 1.34483C21.5525 1.14486 21.5448 0.828374 21.3448 0.637931C21.1449 0.447488 20.8284 0.455207 20.6379 0.655172L21.3621 1.34483ZM0.637932 8.34483L7.3046 15.3448L8.02874 14.6552L1.36207 7.65517L0.637932 8.34483ZM8.02874 15.3448L21.3621 1.34483L20.6379 0.655172L7.3046 14.6552L8.02874 15.3448Z" fill="black"/>
</svg>
