<svg width="24" height="24" viewBox="0 0 24 24" fill="none" xmlns="http://www.w3.org/2000/svg">
<path fill-rule="evenodd" clip-rule="evenodd" d="M13.0577 5.48923C13.6506 4.86754 14.6411 4.83435 15.2756 5.41264L18.4948 8.34636C19.1359 8.93057 19.1722 9.91808 18.5732 10.5462L16.68 12.5314L16.6786 12.5329L10.9423 18.4996C10.942 18.4999 10.9417 18.5002 10.9414 18.5005C10.644 18.8119 10.2307 18.9872 9.80012 18.9888L6.78089 19C5.9593 19.003 5.2596 18.379 5.20349 17.5526L5.00352 14.6077L5.50237 14.5738L5.00352 14.6077C4.97424 14.1766 5.12886 13.7551 5.42684 13.4426L5.4282 13.4412L5.42821 13.4412L11.2959 7.33675L11.2972 7.33532L13.0577 5.48923ZM11.6707 8.38978L6.15053 14.1327C6.15033 14.1329 6.15013 14.1331 6.14994 14.1333C6.04361 14.2452 5.9912 14.3924 6.00122 14.54L6.20119 17.4849C6.22027 17.7658 6.46353 18.0012 6.77718 18L9.7964 17.9888C9.95894 17.9882 10.1115 17.9218 10.2186 17.8094L10.22 17.808L15.6121 12.1993L11.6707 8.38978ZM16.3037 11.477L17.8495 9.85607C18.0601 9.63516 18.0487 9.29276 17.8213 9.08548L14.6021 6.15176C14.3681 5.93856 13.9982 5.95201 13.7814 6.17936L12.3623 7.66746L16.3037 11.477Z" fill="black"/>
</svg>
