<svg width="22" height="21" viewBox="0 0 22 21" fill="none" xmlns="http://www.w3.org/2000/svg">
<g clip-path="url(#clip0_256_429)">
<path d="M0.00012207 20.182V6.50949H4.77432V20.182H0.00012207ZM7.41948 20.182H12.1937V12.5475C12.1937 12.0699 12.251 11.7015 12.3657 11.4422C12.5664 10.9783 12.8711 10.586 13.2797 10.2653C13.6883 9.94467 14.2008 9.78435 14.8173 9.78435C16.4231 9.78435 17.2259 10.8146 17.2259 12.875V20.182H22.0001V12.3428C22.0001 10.3233 21.4983 8.79166 20.4947 7.7478C19.4912 6.70394 18.165 6.18201 16.5163 6.18201C14.6668 6.18201 13.2259 6.93932 12.1937 8.45394V8.49487H12.1722L12.1937 8.45394V6.50949H7.41948C7.44814 6.94613 7.46249 8.30383 7.46249 10.5826C7.46249 12.8613 7.44814 16.0611 7.41948 20.182Z" fill="black"/>
<circle cx="2.5" cy="2.5" r="2.5" fill="black"/>
</g>
<defs>
<clipPath id="clip0_256_429">
<rect width="22" height="21" fill="white"/>
</clipPath>
</defs>
</svg>
