<svg width="24" height="24" viewBox="0 0 24 24" fill="none" xmlns="http://www.w3.org/2000/svg">
<path d="M10 2.5H3.5V21.5H10" stroke="black" stroke-linecap="round" stroke-linejoin="round"/>
<path d="M13.9989 17.6284C13.7936 17.8131 13.777 18.1292 13.9617 18.3345C14.1464 18.5397 14.4626 18.5564 14.6678 18.3716L13.9989 17.6284ZM21 12L21.3345 12.3716C21.4398 12.2768 21.5 12.1417 21.5 12C21.5 11.8583 21.4398 11.7232 21.3345 11.6284L21 12ZM14.6678 5.62835C14.4626 5.44362 14.1464 5.46026 13.9617 5.66552C13.777 5.87077 13.7936 6.18692 13.9989 6.37165L14.6678 5.62835ZM7 11.5C6.72386 11.5 6.5 11.7239 6.5 12C6.5 12.2761 6.72386 12.5 7 12.5V11.5ZM14.6678 18.3716L21.3345 12.3716L20.6655 11.6284L13.9989 17.6284L14.6678 18.3716ZM21.3345 11.6284L14.6678 5.62835L13.9989 6.37165L20.6655 12.3716L21.3345 11.6284ZM7 12.5H21V11.5H7V12.5Z" fill="black"/>
</svg>
